<svg width="166" height="166" viewBox="0 0 166 166" fill="none" xmlns="http://www.w3.org/2000/svg">
<path d="M151.41 24.6406H14.5898C6.545 24.6406 0 31.1856 0 39.2305V126.77C0 134.814 6.545 141.359 14.5898 141.359H151.41C159.455 141.359 166 134.814 166 126.77V39.2305C166 31.1856 159.455 24.6406 151.41 24.6406ZM135.6 34.3672L83 86.7019L30.4004 34.3672H135.6ZM19.1289 131.633H14.5898C11.9082 131.633 9.72656 129.451 9.72656 126.77V54.957L19.1289 64.2187V131.633ZM136.496 131.633H28.5312V73.8963L65.8051 110.753C70.3882 115.342 76.4949 117.869 83 117.869C89.5051 117.869 95.6118 115.342 100.184 110.764L136.496 74.7279V131.633ZM156.273 126.77C156.273 129.451 154.092 131.633 151.41 131.633H146.223V65.0503L156.273 54.957V126.77ZM156.273 41.2364L93.3131 103.88C90.5676 106.629 86.9049 108.143 83 108.143C79.0951 108.143 75.4327 106.629 72.6762 103.869L9.72656 41.2364V39.2305C9.72656 36.5489 11.9082 34.3672 14.5898 34.3672H16.6101L83 100.423L149.39 34.3672H151.41C154.092 34.3672 156.273 36.5489 156.273 39.2305V41.2364Z" fill="white"/>
</svg>
