<svg width="128" height="128" viewBox="0 0 128 128" fill="none" xmlns="http://www.w3.org/2000/svg">
<g clip-path="url(#clip0_50_39)">
<path d="M127.875 37.6324C127.575 30.8312 126.475 26.1555 124.9 22.1039C123.274 17.8033 120.774 13.9529 117.498 10.7521C114.297 7.50147 110.421 4.97558 106.17 3.37566C102.095 1.80016 97.444 0.700332 90.6429 0.400469C83.791 0.0752099 81.6158 0 64.2374 0C46.859 0 44.6837 0.0752099 37.8572 0.375073C31.0561 0.674937 26.3804 1.77574 22.3298 3.35026C18.0281 4.97558 14.1778 7.47607 10.977 10.7521C7.72632 13.9529 5.20141 17.8287 3.60051 22.0795C2.02501 26.1555 0.925186 30.8058 0.625322 37.607C0.300063 44.4589 0.224854 46.6341 0.224854 64.0125C0.224854 81.3909 0.300063 83.5661 0.599927 90.3927C0.89979 97.1938 2.00059 101.87 3.57609 105.921C5.20141 110.222 7.72632 114.072 10.977 117.273C14.1778 120.524 18.0535 123.049 22.3044 124.649C26.3804 126.225 31.0307 127.325 37.8328 127.625C44.6583 127.925 46.8345 128 64.2129 128C81.5913 128 83.7666 127.925 90.5931 127.625C97.3942 127.325 102.07 126.225 106.121 124.649C114.723 121.324 121.524 114.522 124.85 105.921C126.424 101.845 127.525 97.1938 127.825 90.3927C128.125 83.5661 128.2 81.3909 128.2 64.0125C128.2 46.6341 128.175 44.4589 127.875 37.6324ZM116.348 89.8926C116.073 96.1438 115.023 99.5194 114.147 101.77C111.997 107.346 107.571 111.772 101.995 113.923C99.7443 114.798 96.3442 115.848 90.1174 116.122C83.3661 116.423 81.3413 116.497 64.2628 116.497C47.1842 116.497 45.134 116.423 38.4071 116.122C32.1559 115.848 28.7802 114.798 26.5298 113.923C23.7548 112.897 21.229 111.272 19.1788 109.146C17.0533 107.071 15.428 104.57 14.4024 101.795C13.5273 99.5448 12.4772 96.1438 12.2028 89.918C11.9019 83.1666 11.8277 81.1409 11.8277 64.0623C11.8277 46.9838 11.9019 44.9336 12.2028 38.2077C12.4772 31.9564 13.5273 28.5808 14.4024 26.3303C15.428 23.5544 17.0533 21.0295 19.2041 18.9783C21.2788 16.8529 23.7793 15.2276 26.5552 14.203C28.8056 13.3278 32.2067 12.2778 38.4325 12.0023C45.1838 11.7025 47.2096 11.6273 64.2872 11.6273C81.3911 11.6273 83.4159 11.7025 90.1428 12.0023C96.394 12.2778 99.7697 13.3278 102.02 14.203C104.795 15.2276 107.321 16.8529 109.371 18.9783C111.497 21.0539 113.122 23.5544 114.147 26.3303C115.023 28.5808 116.073 31.9809 116.348 38.2077C116.648 44.959 116.723 46.9838 116.723 64.0623C116.723 81.1409 116.648 83.1412 116.348 89.8926Z" fill="white"/>
<path d="M64.2374 31.1309C46.0844 31.1309 31.356 45.8583 31.356 64.0123C31.356 82.1662 46.0844 96.8937 64.2374 96.8937C82.3913 96.8937 97.1188 82.1662 97.1188 64.0123C97.1188 45.8583 82.3913 31.1309 64.2374 31.1309ZM64.2374 85.3416C52.4607 85.3416 42.908 75.79 42.908 64.0123C42.908 52.2346 52.4607 42.6829 64.2374 42.6829C76.0151 42.6829 85.5667 52.2346 85.5667 64.0123C85.5667 75.79 76.0151 85.3416 64.2374 85.3416Z" fill="white"/>
<path d="M106.096 29.8311C106.096 34.0702 102.659 37.5074 98.4189 37.5074C94.1797 37.5074 90.7426 34.0702 90.7426 29.8311C90.7426 25.591 94.1797 22.1548 98.4189 22.1548C102.659 22.1548 106.096 25.591 106.096 29.8311Z" fill="white"/>
</g>
<defs>
<clipPath id="clip0_50_39">
<rect width="128" height="128" fill="white"/>
</clipPath>
</defs>
</svg>
