<svg width="128" height="128" viewBox="0 0 128 128" fill="none" xmlns="http://www.w3.org/2000/svg">
<g clip-path="url(#clip0_50_42)">
<path d="M40.002 105.75H22.502V49.25H40.002V105.75ZM41.748 31.249C41.748 25.5918 37.1582 21 31.5039 21C25.8281 21 21.25 25.5918 21.25 31.249C21.25 36.9082 25.8281 41.5 31.5039 41.5C37.1582 41.5 41.748 36.9082 41.748 31.249ZM105.5 74.666C105.5 59.499 102.296 48.25 84.5781 48.25C76.0645 48.25 70.3496 52.5078 68.0166 56.9355H68V49.25H51V105.75H68V77.6973C68 70.3506 69.8701 63.2334 78.9766 63.2334C87.959 63.2334 88.25 71.6348 88.25 78.1641V105.75H105.5V74.666ZM128 113V15C128 6.72852 121.271 0 113 0H15C6.72852 0 0 6.72852 0 15V113C0 121.271 6.72852 128 15 128H113C121.271 128 128 121.271 128 113ZM113 10C115.757 10 118 12.2432 118 15V113C118 115.757 115.757 118 113 118H15C12.2432 118 10 115.757 10 113V15C10 12.2432 12.2432 10 15 10H113Z" fill="white"/>
</g>
<defs>
<clipPath id="clip0_50_42">
<rect width="128" height="128" fill="white"/>
</clipPath>
</defs>
</svg>
