<svg width="248" height="107" viewBox="0 0 248 107" fill="none" xmlns="http://www.w3.org/2000/svg">
<path d="M21.1843 30.1122C7.44976 31.4217 2.57737 42.7742 0.655747 52.5915C-1.26587 62.4088 1.23701 72.6543 5.5446 81.6826C7.52056 85.8236 9.89666 89.856 10.8369 94.3462C11.7771 98.8365 10.9604 104.052 7.44647 107C14.5533 106.358 20.1371 100.67 24.1466 94.7646C32.0321 83.1031 36.4205 69.4294 36.7944 55.3555C36.9871 47.528 35.6648 39.1158 30.3067 33.4099C27.9767 30.9292 26.7533 29.9804 21.237 30.0644" fill="white"/>
<path d="M3.86174 34.0473C3.80905 25.057 8.15616 16.3631 14.6093 10.1037C22.584 2.3619 34.3689 -1.92905 45.1346 0.848127C55.9003 3.6253 64.5748 14.4078 63.2295 25.4408C62.528 31.1878 58.3028 37.1177 52.5083 37.2116C49.7732 37.2561 47.1913 36.0141 44.8185 34.6535C40.4006 32.1185 36.2757 29.0629 31.6685 26.8936C27.0612 24.7242 21.7607 23.4839 16.8487 24.8544C11.7442 26.2808 7.19124 29.9607 3.90126 34.1297" fill="white"/>
<path d="M73.8469 37.8152H79.387L79.8282 40.6107C81.6912 37.619 84.1916 37.1776 86.6429 37.1776C89.1433 37.1776 91.5456 38.1585 92.8694 39.4827L90.1729 44.6813C88.9472 43.6514 87.8196 43.1119 85.8585 43.1119C82.7208 43.1119 79.8282 44.7794 79.8282 49.2423V61.9937H73.8469V37.8152Z" fill="white"/>
<path d="M101.086 37.7171V61.9937H95.1047V37.7171H101.086ZM94.5654 30.9981C94.5654 35.6573 101.625 35.6573 101.625 30.9981C101.625 26.339 94.5654 26.339 94.5654 30.9981Z" fill="white"/>
<path d="M130.278 61.9937H124.296V49.3404C124.296 45.6622 122.286 42.8667 118.462 42.8667C114.785 42.8667 112.285 45.9564 112.285 49.6347V61.9937H106.353V37.7661H111.696L112.089 41.0521C114.54 38.6489 116.991 37.4228 120.031 37.4228C125.718 37.4228 130.278 41.6896 130.278 49.2914V61.9937Z" fill="white"/>
<path d="M147.135 42.8176C143.311 42.8176 140.271 45.515 140.271 49.8799C140.271 54.0977 143.311 56.9912 147.135 56.9912C150.91 56.9912 154.146 54.2448 154.146 49.8799C154.146 45.6622 150.91 42.8176 147.135 42.8176ZM154.538 27.7122H160.52V61.9937H154.93L154.538 58.6587C152.675 61.5523 149.685 62.5332 146.743 62.5332C139.634 62.5332 134.29 57.825 134.29 49.8799C134.29 41.5425 139.536 37.2267 146.596 37.2267C149.145 37.2267 153.116 38.5999 154.538 41.1011V27.7122Z" fill="white"/>
<path d="M184.698 41.1501L184.894 37.8152H190.63V61.9937H184.992L184.698 58.4625C183.325 61.3071 179.55 62.6803 176.854 62.7293C169.696 62.7784 164.401 58.3644 164.401 49.8799C164.401 41.5425 169.941 37.1776 177.001 37.2267C180.236 37.2267 183.325 38.747 184.698 41.1501ZM177.54 42.5724C173.569 42.5724 170.382 45.2698 170.382 49.8799C170.382 54.49 173.569 57.2364 177.54 57.2364C186.953 57.2364 186.953 42.5724 177.54 42.5724Z" fill="white"/>
<path d="M219.474 61.9937H213.493V49.3404C213.493 45.6622 211.483 42.8667 207.659 42.8667C203.981 42.8667 201.481 45.9564 201.481 49.6347V61.9937H195.549V37.7661H200.893L201.285 41.0521C203.736 38.6489 206.188 37.4228 209.227 37.4228C214.914 37.4228 219.474 41.6896 219.474 49.2914V61.9937Z" fill="white"/>
<path d="M241.185 38.4037L243.588 35.363L248 38.698L245.304 42.131C247.167 44.2399 247.853 46.643 247.853 49.2914C247.853 52.283 246.725 56.5008 242.754 58.3154C246.774 60.3262 247.755 63.2198 247.755 66.3095C247.755 72.9794 242.656 77.0991 235.645 77.0991C228.634 77.0991 223.388 72.8323 223.388 66.3095H229.321C229.321 69.4483 232.213 71.5081 235.645 71.5081C239.077 71.5081 241.774 69.6445 241.774 66.3095C241.774 62.9745 238.636 61.4542 235.645 61.4542C228.095 61.4542 223.388 56.8441 223.388 49.2914C223.388 41.7387 228.88 37.0305 235.645 37.0305C237.557 37.0305 239.518 37.2757 241.185 38.4037ZM235.645 42.4743C232.164 42.4743 229.321 45.0736 229.321 49.2914C229.321 53.5091 232.164 56.0104 235.645 56.0104C239.077 56.0104 241.921 53.4601 241.921 49.2914C241.921 45.1227 239.077 42.4743 235.645 42.4743Z" fill="white"/>
</svg>
