<svg width="128" height="128" viewBox="0 0 128 128" fill="none" xmlns="http://www.w3.org/2000/svg">
<g clip-path="url(#clip0_8_47)">
<path d="M64 128C99.3462 128 128 99.3462 128 64C128 28.6538 99.3462 0 64 0C28.6538 0 0 28.6538 0 64C0 99.3462 28.6538 128 64 128Z" fill="white"/>
<path d="M87.935 49.7625C92.57 46.7175 95.635 41.4725 95.635 35.5225C95.635 26.1325 87.9975 18.495 78.6075 18.495H49.3925C40.0025 18.495 32.365 26.1325 32.365 35.5225C32.365 41.4725 35.43 46.7175 40.065 49.7625C35.43 52.8075 32.365 58.0525 32.365 64C32.365 69.95 35.43 75.195 40.065 78.24C35.43 81.2825 32.365 86.5275 32.365 92.4775C32.365 101.867 40.0425 109.505 49.4825 109.505C59.025 109.505 66.79 101.782 66.79 92.2925V76.5925C69.815 79.345 73.835 81.0275 78.24 81.0275H78.6075C87.9975 81.0275 95.635 73.39 95.635 64C95.635 58.0525 92.57 52.8075 87.935 49.7625ZM66.79 24.0725H78.6075C84.9225 24.0725 90.0575 29.21 90.0575 35.5225C90.0575 41.835 84.9225 46.9725 78.6075 46.9725H66.79V24.0725ZM37.9425 35.5225C37.9425 29.21 43.0775 24.0725 49.3925 24.0725H61.21V46.9725H49.3925C43.0775 46.9725 37.9425 41.835 37.9425 35.5225ZM37.9425 64C37.9425 57.6875 43.0775 52.55 49.3925 52.55H61.21V75.45H49.3925C43.0775 75.45 37.9425 70.315 37.9425 64ZM61.21 92.2925C61.21 98.7075 55.95 103.927 49.4825 103.927C43.12 103.927 37.9425 98.79 37.9425 92.4775C37.9425 86.165 43.0775 81.0275 49.3925 81.0275H61.21V92.2925ZM78.6075 75.45H78.24C71.925 75.45 66.79 70.315 66.79 64C66.79 57.6875 71.925 52.55 78.24 52.55H78.6075C84.9225 52.55 90.0575 57.6875 90.0575 64C90.0575 70.315 84.9225 75.45 78.6075 75.45Z" fill="#0F1123"/>
</g>
<defs>
<clipPath id="clip0_8_47">
<rect width="128" height="128" fill="white"/>
</clipPath>
</defs>
</svg>
