<svg width="169" height="58" viewBox="0 0 169 58" fill="none" xmlns="http://www.w3.org/2000/svg">
<rect x="35" y="25" width="134" height="33" rx="16.5" fill="#715EE4"/>
<path d="M62.6562 47.3672H64.4961C64.4883 48.7734 64.1289 49.7773 63.418 50.3789C62.707 50.9727 61.5234 51.2695 59.8672 51.2695C58.5547 51.2695 57.4961 51.0625 56.6914 50.6484C55.8945 50.2344 55.3125 49.5703 54.9453 48.6562C54.5859 47.7344 54.4062 46.5273 54.4062 45.0352C54.4062 43.5508 54.5898 42.3594 54.957 41.4609C55.3242 40.5547 55.9062 39.8984 56.7031 39.4922C57.5078 39.0781 58.5664 38.8711 59.8789 38.8711C61.4258 38.8711 62.5742 39.1914 63.3242 39.832C64.082 40.4648 64.4727 41.4453 64.4961 42.7734H62.6562C62.5938 41.8906 62.3438 41.2656 61.9062 40.8984C61.4766 40.5234 60.7852 40.3359 59.832 40.3359C58.9258 40.3359 58.2109 40.4805 57.6875 40.7695C57.1641 41.0586 56.793 41.5469 56.5742 42.2344C56.3555 42.9219 56.2461 43.8633 56.2461 45.0586C56.2461 46.2617 56.3555 47.2109 56.5742 47.9062C56.8008 48.5938 57.1836 49.082 57.7227 49.3711C58.2617 49.6602 58.9961 49.8047 59.9258 49.8047C60.9023 49.8047 61.5977 49.625 62.0117 49.2656C62.4258 48.8984 62.6406 48.2656 62.6562 47.3672ZM67.8359 51V34.1133H69.6406V51H67.8359ZM73.5664 34.7578H75.9805V37.0078H73.5664V34.7578ZM75.6758 51H73.8711V39.1523H75.6758V51ZM87.4531 47.3672H89.293C89.2852 48.7734 88.9258 49.7773 88.2148 50.3789C87.5039 50.9727 86.3203 51.2695 84.6641 51.2695C83.3516 51.2695 82.293 51.0625 81.4883 50.6484C80.6914 50.2344 80.1094 49.5703 79.7422 48.6562C79.3828 47.7344 79.2031 46.5273 79.2031 45.0352C79.2031 43.5508 79.3867 42.3594 79.7539 41.4609C80.1211 40.5547 80.7031 39.8984 81.5 39.4922C82.3047 39.0781 83.3633 38.8711 84.6758 38.8711C86.2227 38.8711 87.3711 39.1914 88.1211 39.832C88.8789 40.4648 89.2695 41.4453 89.293 42.7734H87.4531C87.3906 41.8906 87.1406 41.2656 86.7031 40.8984C86.2734 40.5234 85.582 40.3359 84.6289 40.3359C83.7227 40.3359 83.0078 40.4805 82.4844 40.7695C81.9609 41.0586 81.5898 41.5469 81.3711 42.2344C81.1523 42.9219 81.043 43.8633 81.043 45.0586C81.043 46.2617 81.1523 47.2109 81.3711 47.9062C81.5977 48.5938 81.9805 49.082 82.5195 49.3711C83.0586 49.6602 83.793 49.8047 84.7227 49.8047C85.6992 49.8047 86.3945 49.625 86.8086 49.2656C87.2227 48.8984 87.4375 48.2656 87.4531 47.3672ZM92.6328 51V34.1133H94.4258V43.7344H95.5156C96.0859 43.7344 96.5547 43.6641 96.9219 43.5234C97.2969 43.3828 97.6172 43.1484 97.8828 42.8203C98.1562 42.4922 98.4258 42.043 98.6914 41.4727L99.7695 39.1523H101.68L100.602 41.5664C100.32 42.1914 100.059 42.707 99.8164 43.1133C99.5742 43.5117 99.2852 43.8281 98.9492 44.0625C98.6211 44.2891 98.1797 44.4648 97.625 44.5898C98.1328 44.6992 98.5469 44.8711 98.8672 45.1055C99.1875 45.3398 99.4844 45.6875 99.7578 46.1484C100.031 46.6016 100.352 47.207 100.719 47.9648L102.184 51H100.191L98.8203 48.1172C98.4844 47.4062 98.168 46.8594 97.8711 46.4766C97.5742 46.0859 97.2422 45.8164 96.875 45.668C96.5156 45.5195 96.0664 45.4453 95.5273 45.4453H94.4258V51H92.6328ZM117.359 40.5469H114.453V47.8594C114.453 48.5234 114.594 49 114.875 49.2891C115.164 49.5703 115.625 49.7109 116.258 49.7109C116.508 49.7109 116.746 49.6992 116.973 49.6758C117.207 49.6445 117.422 49.6133 117.617 49.582V51.1406C117.414 51.1797 117.176 51.2148 116.902 51.2461C116.629 51.2852 116.297 51.3047 115.906 51.3047C113.734 51.3047 112.648 50.0742 112.648 47.6133V40.5469H110.516V39.1172H112.648V35.8711H114.441V39.1172H117.359V40.5469ZM120.547 51V34.1016H122.352V40.5703C122.742 39.9844 123.223 39.5586 123.793 39.293C124.371 39.0195 125.215 38.8828 126.324 38.8828C127.84 38.8828 128.918 39.2617 129.559 40.0195C130.207 40.7695 130.531 42.0312 130.531 43.8047V51H128.727V43.8047C128.727 42.5781 128.5 41.7031 128.047 41.1797C127.602 40.6562 126.852 40.3945 125.797 40.3945C124.555 40.3945 123.668 40.6641 123.137 41.2031C122.613 41.7422 122.352 42.6406 122.352 43.8984V51H120.547ZM134.41 34.7578H136.824V37.0078H134.41V34.7578ZM136.52 51H134.715V39.1523H136.52V51ZM139.871 47.8125H141.582C141.598 48.5938 141.809 49.1328 142.215 49.4297C142.621 49.7188 143.379 49.8633 144.488 49.8633C145.488 49.8633 146.176 49.707 146.551 49.3945C146.934 49.082 147.125 48.5664 147.125 47.8477C147.125 47.293 146.945 46.8555 146.586 46.5352C146.234 46.2148 145.672 45.9922 144.898 45.8672L143.656 45.668C142.336 45.457 141.383 45.0898 140.797 44.5664C140.219 44.0352 139.93 43.2773 139.93 42.293C139.93 40.0195 141.43 38.8828 144.43 38.8828C146.008 38.8828 147.121 39.1523 147.77 39.6914C148.418 40.2305 148.742 41.1211 148.742 42.3633H147.031C147.031 41.6211 146.836 41.0898 146.445 40.7695C146.055 40.4492 145.383 40.2891 144.43 40.2891C143.461 40.2891 142.758 40.4453 142.32 40.7578C141.891 41.0703 141.676 41.5742 141.676 42.2695C141.676 42.8086 141.836 43.2227 142.156 43.5117C142.484 43.8008 143.004 44.0039 143.715 44.1211L144.957 44.3203C146.332 44.5391 147.312 44.918 147.898 45.457C148.492 45.9961 148.789 46.7852 148.789 47.8242C148.789 48.9961 148.438 49.8633 147.734 50.4258C147.039 50.9883 145.934 51.2695 144.418 51.2695C142.816 51.2695 141.656 51.0039 140.938 50.4727C140.227 49.9414 139.871 49.0547 139.871 47.8125Z" fill="white"/>
<path d="M35.1717 13.7037L3.56086 10.1101C3.062 10.0667 2.52651 10.3742 2.19204 10.9003C1.85871 11.4246 1.78527 12.0714 2.00447 12.558L16.6082 42.9007C16.8419 43.4199 17.3609 43.6533 17.914 43.4874C18.4603 43.3236 18.9358 42.7949 19.0978 42.152L23.095 26.2498L35.4274 16.4685C35.9229 16.0756 36.2119 15.4106 36.1548 14.798C36.0976 14.1838 35.7067 13.7489 35.1717 13.7037Z" fill="#BEE557"/>
</svg>
