<svg width="1113" height="305" viewBox="0 0 1113 305" fill="none" xmlns="http://www.w3.org/2000/svg">
<rect x="7.94217" y="65.8898" width="952" height="230" transform="rotate(-3.48605 7.94217 65.8898)" stroke="#0B58F3"/>
<path d="M55.1311 240.243L48.4182 130.047L66.5845 128.941L65.4778 110.774L121.773 107.345L122.88 125.511L141.246 124.392L144.651 180.289L126.285 181.408L127.392 199.574L73.0926 202.882L75.2937 239.015L55.1311 240.243ZM71.8643 182.719L124.167 179.533L121.005 127.629L68.7024 130.815L71.8643 182.719ZM184.225 232.379L183.13 214.412L164.964 215.519L161.546 159.423L179.713 158.316L178.606 140.15L234.902 136.72L236.008 154.887L254.374 153.768L257.792 209.864L239.426 210.983L240.52 228.949L184.225 232.379ZM185.005 212.294L237.308 209.108L234.122 156.805L181.819 159.991L185.005 212.294ZM283.029 226.36L278.517 152.297L296.683 151.191L295.577 133.024L351.872 129.595L352.979 147.761L371.345 146.642L372.549 166.406L352.187 167.646L351.092 149.679L298.789 152.866L303.192 225.132L283.029 226.36ZM436.133 217.033L435.038 199.066L417.071 200.161L413.764 145.862L395.597 146.968L394.381 127.005L412.547 125.899L410.346 89.7656L430.309 88.5494L432.51 124.682L487.209 121.35L488.425 141.313L433.727 144.645L436.913 196.949L489.615 193.738L488.508 175.572L508.671 174.343L509.899 194.506L491.733 195.613L492.828 213.579L436.133 217.033ZM531.202 211.242L524.489 101.046L542.655 99.9393L541.548 81.773L597.844 78.3435L598.951 96.5099L617.317 95.391L618.533 115.354L598.171 116.594L597.076 98.6278L544.773 101.814L546.853 135.951L583.185 133.737L584.389 153.501L548.056 155.714L551.364 210.013L531.202 211.242ZM646.454 204.221L645.359 186.254L627.193 187.361L623.776 131.265L641.942 130.158L640.835 111.992L697.131 108.562L698.238 126.729L716.603 125.61L720.021 181.706L701.655 182.825L702.749 200.791L646.454 204.221ZM647.234 184.136L699.537 180.95L696.351 128.647L644.048 131.833L647.234 184.136ZM745.258 198.202L737.438 69.8397L757.601 68.6114L765.421 196.973L745.258 198.202ZM789.512 195.506L783.893 103.277L804.056 102.049L809.675 194.278L789.512 195.506ZM782.921 87.3065L781.692 67.1438L801.855 65.9156L803.083 86.0782L782.921 87.3065ZM848.033 191.941L846.939 173.974L828.772 175.081L825.355 118.985L843.521 117.878L842.415 99.7119L898.71 96.2824L899.817 114.449L918.183 113.33L921.6 169.426L903.234 170.545L904.329 188.511L848.033 191.941ZM848.813 171.856L901.116 168.67L897.93 116.367L845.627 119.553L848.813 171.856Z" fill="white"/>
<rect x="1006" y="131" width="107" height="33" rx="16.5" fill="#D76B9B"/>
<path d="M1034.26 144.367H1032.17C1032.17 142.805 1032.61 141.652 1033.47 140.91C1034.34 140.16 1035.68 139.785 1037.49 139.785C1039.37 139.785 1040.73 140.133 1041.58 140.828C1042.44 141.523 1042.87 142.652 1042.87 144.215C1042.87 144.801 1042.8 145.336 1042.67 145.82C1042.54 146.297 1042.3 146.762 1041.97 147.215C1041.63 147.668 1041.17 148.148 1040.59 148.656C1040.01 149.164 1039.27 149.746 1038.36 150.402C1036.99 151.371 1036 152.219 1035.39 152.945C1034.79 153.672 1034.49 154.43 1034.49 155.219H1042.66V157H1032.28V156.602C1032.28 155.805 1032.34 155.102 1032.48 154.492C1032.61 153.875 1032.84 153.301 1033.17 152.77C1033.5 152.238 1033.95 151.699 1034.53 151.152C1035.11 150.605 1035.85 150.004 1036.74 149.348C1037.84 148.535 1038.68 147.855 1039.26 147.309C1039.86 146.754 1040.27 146.238 1040.49 145.762C1040.72 145.277 1040.83 144.738 1040.83 144.145C1040.83 143.215 1040.57 142.539 1040.05 142.117C1039.52 141.688 1038.64 141.473 1037.41 141.473C1036.28 141.473 1035.47 141.695 1034.98 142.141C1034.5 142.578 1034.26 143.32 1034.26 144.367ZM1051.81 157.27C1050.24 157.27 1049 156.969 1048.1 156.367C1047.19 155.758 1046.54 154.801 1046.15 153.496C1045.77 152.191 1045.58 150.48 1045.58 148.363C1045.58 146.34 1045.77 144.695 1046.15 143.43C1046.54 142.164 1047.19 141.234 1048.1 140.641C1049 140.047 1050.24 139.75 1051.81 139.75C1053.38 139.75 1054.62 140.047 1055.52 140.641C1056.42 141.234 1057.06 142.164 1057.44 143.43C1057.81 144.695 1058 146.34 1058 148.363C1058 150.48 1057.81 152.191 1057.44 153.496C1057.06 154.801 1056.42 155.758 1055.52 156.367C1054.62 156.969 1053.38 157.27 1051.81 157.27ZM1051.81 155.559C1052.62 155.559 1053.28 155.453 1053.8 155.242C1054.34 155.023 1054.75 154.648 1055.06 154.117C1055.37 153.586 1055.59 152.855 1055.71 151.926C1055.85 150.988 1055.91 149.801 1055.91 148.363C1055.91 146.605 1055.79 145.227 1055.55 144.227C1055.32 143.219 1054.9 142.508 1054.31 142.094C1053.71 141.672 1052.88 141.461 1051.81 141.461C1050.74 141.461 1049.91 141.672 1049.3 142.094C1048.7 142.516 1048.28 143.23 1048.03 144.238C1047.79 145.238 1047.66 146.613 1047.66 148.363C1047.66 149.809 1047.73 151 1047.86 151.938C1048 152.867 1048.22 153.598 1048.53 154.129C1048.84 154.652 1049.27 155.023 1049.8 155.242C1050.34 155.453 1051.01 155.559 1051.81 155.559ZM1062.9 144.367H1060.81C1060.81 142.805 1061.25 141.652 1062.11 140.91C1062.98 140.16 1064.32 139.785 1066.13 139.785C1068.01 139.785 1069.37 140.133 1070.22 140.828C1071.08 141.523 1071.51 142.652 1071.51 144.215C1071.51 144.801 1071.45 145.336 1071.31 145.82C1071.18 146.297 1070.95 146.762 1070.61 147.215C1070.27 147.668 1069.81 148.148 1069.23 148.656C1068.65 149.164 1067.91 149.746 1067 150.402C1065.63 151.371 1064.64 152.219 1064.04 152.945C1063.43 153.672 1063.13 154.43 1063.13 155.219H1071.3V157H1060.92V156.602C1060.92 155.805 1060.98 155.102 1061.12 154.492C1061.25 153.875 1061.48 153.301 1061.81 152.77C1062.14 152.238 1062.59 151.699 1063.17 151.152C1063.75 150.605 1064.49 150.004 1065.38 149.348C1066.48 148.535 1067.32 147.855 1067.9 147.309C1068.5 146.754 1068.91 146.238 1069.13 145.762C1069.36 145.277 1069.47 144.738 1069.47 144.145C1069.47 143.215 1069.21 142.539 1068.69 142.117C1068.16 141.688 1067.29 141.473 1066.05 141.473C1064.92 141.473 1064.11 141.695 1063.62 142.141C1063.14 142.578 1062.9 143.32 1062.9 144.367ZM1076.77 149.758L1074.92 149.148L1075.57 140.125H1085.06V141.906H1077.49L1077.04 147.66C1077.5 147.207 1077.99 146.891 1078.5 146.711C1079.01 146.523 1079.67 146.43 1080.48 146.43C1082.23 146.43 1083.54 146.863 1084.41 147.73C1085.29 148.598 1085.73 149.973 1085.73 151.855C1085.73 153.73 1085.26 155.102 1084.32 155.969C1083.39 156.836 1081.98 157.27 1080.09 157.27C1078.21 157.27 1076.81 156.895 1075.91 156.145C1075.01 155.395 1074.56 154.242 1074.57 152.688H1076.66C1076.66 153.727 1076.91 154.469 1077.42 154.914C1077.93 155.359 1078.79 155.582 1080 155.582C1081.3 155.582 1082.24 155.312 1082.82 154.773C1083.4 154.227 1083.69 153.254 1083.69 151.855C1083.69 150.457 1083.4 149.484 1082.82 148.938C1082.24 148.391 1081.3 148.117 1080 148.117C1078.4 148.117 1077.33 148.664 1076.77 149.758Z" fill="white"/>
<rect x="0.529478" y="59.3284" width="15" height="15" transform="rotate(-3.48605 0.529478 59.3284)" fill="#D9D9D9" stroke="#0B58F3"/>
<rect x="950.768" y="1.44156" width="15" height="15" transform="rotate(-3.48605 950.768 1.44156)" fill="#D9D9D9" stroke="#0B58F3"/>
<rect x="14.5147" y="288.903" width="15" height="15" transform="rotate(-3.48605 14.5147 288.903)" fill="#D9D9D9" stroke="#0B58F3"/>
<rect x="964.753" y="231.016" width="15" height="15" transform="rotate(-3.48605 964.753 231.016)" fill="#D9D9D9" stroke="#0B58F3"/>
<path d="M1002.8 110.51L958.215 105.303C957.511 105.24 956.756 105.676 956.285 106.424C955.816 107.17 955.714 108.09 956.024 108.784L976.67 152.023C977 152.763 977.733 153.096 978.513 152.862C979.283 152.63 979.953 151.879 980.18 150.964L985.792 128.336L1003.17 114.447C1003.87 113.889 1004.27 112.943 1004.19 112.07C1004.11 111.196 1003.56 110.576 1002.8 110.51Z" fill="#BEE557"/>
</svg>
