<svg width="128" height="128" viewBox="0 0 128 128" fill="none" xmlns="http://www.w3.org/2000/svg">
<path d="M56.2252 47.9742C57.0955 49.3402 57.5497 50.9765 57.4925 52.6925C57.4925 55.04 56.96 56.8525 55.84 58.1875C53.368 61.134 48.988 61.9725 45.3325 61.9725H42.5075C41.8675 61.9725 41.1725 61.92 40.4275 61.8675V43.9475C40.8 43.8925 41.5475 43.84 42.6125 43.8925C43.6275 43.84 44.8525 43.84 46.24 43.84C49.9152 43.84 54.111 44.6565 56.2252 47.9742Z" fill="white"/>
<path d="M105.332 1.59998H22.6675C10.1325 1.59998 0 11.7325 0 24.2675V103.732C0 116.267 10.1325 126.4 22.6675 126.4H105.332C117.867 126.4 128 116.267 128 103.732V24.2675C128 11.7325 117.867 1.59998 105.332 1.59998ZM65.92 63.7325C63.7875 66.72 60.8 68.96 57.3325 70.24C53.7075 71.5725 49.7075 72.0525 45.3325 72.0525C44.0525 72.0525 43.2 72.0525 42.6675 72C42.1325 71.9475 41.3875 71.9475 40.3725 71.9475V89.0675C40.4275 89.44 40.16 89.76 39.7875 89.8125H29.44C29.0125 89.8125 28.8 89.6 28.8 89.12V34.24C28.8 33.8675 28.96 33.6525 29.3325 33.6525C30.24 33.6525 31.0925 33.6525 32.32 33.6C33.6 33.5475 34.9325 33.5475 36.3725 33.4925C37.8125 33.44 39.36 33.44 41.0125 33.3875C42.6675 33.3325 44.2675 33.3325 45.8675 33.3325C50.24 33.3325 53.8675 33.8675 56.8525 34.9875C59.52 35.8925 61.9725 37.3875 64 39.36C65.7075 41.0675 67.04 43.1475 67.8925 45.44C68.6925 47.68 69.12 49.9725 69.12 52.3725C69.12 56.96 68.0525 60.7475 65.92 63.7325ZM103.732 84.48C102.24 86.6125 100.16 88.2675 97.76 89.2275C95.1475 90.3475 91.9475 90.9325 88.1075 90.9325C85.6525 90.9325 83.2525 90.72 80.8525 90.24C78.9875 89.92 77.12 89.3325 75.4125 88.5325C75.04 88.32 74.7725 87.9475 74.8275 87.52V78.24C74.8275 78.08 74.88 77.8675 75.04 77.76C75.2 77.6525 75.36 77.7075 75.52 77.8125C77.6 79.04 79.7875 79.8925 82.1325 80.4275C84.16 80.96 86.2925 81.2275 88.4275 81.2275C90.4525 81.2275 91.8925 80.96 92.8525 80.48C93.7075 80.1075 94.2925 79.2 94.2925 78.24C94.2925 77.4925 93.8675 76.8 93.0125 76.1075C92.16 75.4125 90.4 74.6125 87.7875 73.6C85.0675 72.64 82.56 71.36 80.2125 69.76C78.56 68.5875 77.1725 67.04 76.16 65.2275C75.3075 63.52 74.88 61.6525 74.9325 59.7875C74.9325 57.4925 75.5725 55.3075 76.7475 53.3325C78.08 51.2 80.0525 49.4925 82.3475 48.4275C84.8525 47.1475 88 46.56 91.7875 46.56C93.9725 46.56 96.2125 46.72 98.4 47.04C100 47.2525 101.548 47.68 102.988 48.2675C103.2 48.32 103.412 48.5325 103.52 48.7475C103.572 48.96 103.628 49.1725 103.628 49.3875V58.08C103.628 58.2925 103.52 58.5075 103.36 58.6125C102.88 58.72 102.613 58.72 102.4 58.6125C100.8 57.76 99.0925 57.1725 97.28 56.8C95.3075 56.3725 93.3325 56.1075 91.3075 56.1075C90.24 56.0525 89.12 56.2125 88.1075 56.48C87.4125 56.64 86.8275 57.0125 86.4525 57.5475C86.1875 57.9725 86.0275 58.5075 86.0275 58.9875C86.0275 59.4675 86.24 59.9475 86.56 60.3725C87.04 60.96 87.68 61.44 88.3725 61.8125C89.6 62.4525 90.88 63.04 92.16 63.5725C95.04 64.5325 97.8125 65.8675 100.372 67.4675C102.132 68.5875 103.573 70.08 104.588 71.8925C105.44 73.6 105.867 75.4675 105.812 77.3875C105.867 79.8925 105.12 82.4 103.732 84.48Z" fill="white"/>
</svg>
